<?xml version="1.0" encoding="UTF-8" standalone="no"?>
<!-- Created with Inkscape (http://www.inkscape.org/) -->

<svg
   width="11in"
   height="8.5in"
   viewBox="0 0 279.4 215.9"
   version="1.1"
   id="svg1"
   inkscape:version="1.3 (0e150ed6c4, 2023-07-21)"
   sodipodi:docname="decent-into-madness-crop.svg"
   xmlns:inkscape="http://www.inkscape.org/namespaces/inkscape"
   xmlns:sodipodi="http://sodipodi.sourceforge.net/DTD/sodipodi-0.dtd"
   xmlns="http://www.w3.org/2000/svg"
   xmlns:svg="http://www.w3.org/2000/svg">
  <sodipodi:namedview
     id="namedview1"
     pagecolor="#505050"
     bordercolor="#eeeeee"
     borderopacity="1"
     inkscape:showpageshadow="0"
     inkscape:pageopacity="0"
     inkscape:pagecheckerboard="0"
     inkscape:deskcolor="#d1d1d1"
     inkscape:document-units="mm"
     inkscape:zoom="0.72960859"
     inkscape:cx="396.78809"
     inkscape:cy="561.25984"
     inkscape:window-width="1920"
     inkscape:window-height="1057"
     inkscape:window-x="-8"
     inkscape:window-y="-8"
     inkscape:window-maximized="1"
     inkscape:current-layer="layer1"
     showgrid="false" />
  <defs
     id="defs1">
    <clipPath
       id="cpMjg4Ljk1fDU3NS4wNXwwLjk1fDE5MS4wNQ==">
      <rect
         x="288.95001"
         y="0.94999999"
         width="286.10001"
         height="190.10001"
         id="rect34" />
    </clipPath>
    <clipPath
       id="clipPath1">
      <rect
         x="288.95001"
         y="0.94999999"
         width="286.10001"
         height="190.10001"
         id="rect1" />
    </clipPath>
    <clipPath
       id="cpNTc2Ljk1fDg2My4wNXwwLjk1fDE5MS4wNQ==">
      <rect
         x="576.95001"
         y="0.94999999"
         width="286.10001"
         height="190.10001"
         id="rect66" />
    </clipPath>
    <clipPath
       id="clipPath2">
      <rect
         x="576.95001"
         y="0.94999999"
         width="286.10001"
         height="190.10001"
         id="rect2" />
    </clipPath>
    <clipPath
       id="cpMjg4Ljk1fDU3NS4wNXwxOTIuOTV8MzgzLjA1">
      <rect
         x="288.95001"
         y="192.95"
         width="286.10001"
         height="190.10001"
         id="rect130" />
    </clipPath>
    <clipPath
       id="clipPath3">
      <rect
         x="288.95001"
         y="192.95"
         width="286.10001"
         height="190.10001"
         id="rect3" />
    </clipPath>
    <clipPath
       id="cpNTc2Ljk1fDg2My4wNXwxOTIuOTV8MzgzLjA1">
      <rect
         x="576.95001"
         y="192.95"
         width="286.10001"
         height="190.10001"
         id="rect162" />
    </clipPath>
    <clipPath
       id="clipPath4">
      <rect
         x="576.95001"
         y="192.95"
         width="286.10001"
         height="190.10001"
         id="rect4" />
    </clipPath>
  </defs>
  <g
     inkscape:label="Layer 1"
     inkscape:groupmode="layer"
     id="layer1">
    <g
       id="g1"
       transform="matrix(1.6036513,0,0,1.6036513,-73.195643,-71.081385)">
      <g
         clip-path="url(#cpMjg4Ljk1fDU3NS4wNXwxOTIuOTV8MzgzLjA1)"
         id="g131"
         transform="matrix(0.35277777,0,0,0.35277777,-20.331831,-0.00936476)">
        <polyline
           points="299.55,334.93 339.33,376.01 362.61,376.01 379.12,376.01 391.93,376.01 402.39,376.01 411.24,376.01 418.91,376.01 425.67,376.01 431.71,376.01 437.19,376.01 442.18,376.01 446.77,376.01 451.03,376.01 454.99,376.01 458.69,376.01 462.17,376.01 465.45,376.01 468.56,376.01 471.50,376.01 474.30,376.01 476.97,376.01 479.52,376.01 481.97,376.01 484.31,376.01 486.56,376.01 488.73,376.01 490.81,376.01 492.83,376.01 494.77,376.01 496.66,376.01 498.48,376.01 500.25,376.01 501.96,376.01 503.62,376.01 505.24,376.01 506.81,376.01 508.34,376.01 509.83,376.01 511.29,376.01 512.70,376.01 514.09,376.01 515.44,376.01 516.76,376.01 518.05,376.01 519.31,376.01 520.54,376.01 521.75,376.01 522.94,376.01 524.10,376.01 525.23,376.01 526.35,376.01 527.44,376.01 528.51,376.01 529.57,376.01 530.60,376.01 531.62,376.01 532.61,376.01 533.60,376.01 534.56,376.01 535.51,376.01 536.44,376.01 537.36,376.01 538.27,376.01 539.16,376.01 540.03,376.01 540.89,376.01 541.75,376.01 542.58,376.01 543.41,376.01 544.22,376.01 545.03,376.01 545.82,376.01 546.60,376.01 547.37,376.01 548.13,376.01 548.88,376.01 549.62,376.01 550.35,376.01 551.07,376.01 551.79,376.01 552.49,376.01 553.19,376.01 553.87,376.01 554.55,376.01 555.22,376.01 555.89,376.01 556.54,376.01 557.19,376.01 557.83,376.01 558.47,376.01 559.10,376.01 559.72,376.01 560.33,376.01 560.94,376.01 561.54,376.01 562.13,376.01 562.72,376.01 563.31,376.01 563.88,376.01 564.45,376.01 "
           style="fill:none;stroke:#1e466e;stroke-width:0.75;stroke-linecap:round;stroke-linejoin:round;stroke-miterlimit:10"
           id="polyline131" />
      </g>
      <g
         clip-path="url(#cpMjg4Ljk1fDU3NS4wNXwxOTIuOTV8MzgzLjA1)"
         id="g162"
         transform="matrix(0.35277777,0,0,0.35277777,-20.331831,-0.00936476)">
        <polyline
           points="299.55,226.46 339.33,241.72 362.61,248.00 379.12,253.80 391.93,261.71 402.39,269.94 411.24,278.42 418.91,288.07 425.67,297.08 431.71,309.52 437.19,318.99 442.18,328.63 446.77,338.52 451.03,348.65 454.99,358.74 458.69,368.70 462.17,376.01 465.45,376.01 468.56,376.01 471.50,376.01 474.30,376.01 476.97,376.01 479.52,376.01 481.97,376.01 484.31,376.01 486.56,376.01 488.73,376.01 490.81,376.01 492.83,376.01 494.77,376.01 496.66,376.01 498.48,376.01 500.25,376.01 501.96,376.01 503.62,376.01 505.24,376.01 506.81,376.01 508.34,376.01 509.83,376.01 511.29,376.01 512.70,376.01 514.09,376.01 515.44,376.01 516.76,376.01 518.05,376.01 519.31,376.01 520.54,376.01 521.75,376.01 522.94,376.01 524.10,376.01 525.23,376.01 526.35,376.01 527.44,376.01 528.51,376.01 529.57,376.01 530.60,376.01 531.62,376.01 532.61,376.01 533.60,376.01 534.56,376.01 535.51,376.01 536.44,376.01 537.36,376.01 538.27,376.01 539.16,376.01 540.03,376.01 540.89,376.01 541.75,376.01 542.58,376.01 543.41,376.01 544.22,376.01 545.03,376.01 545.82,376.01 546.60,376.01 547.37,376.01 548.13,376.01 548.88,376.01 549.62,376.01 550.35,376.01 551.07,376.01 551.79,376.01 552.49,376.01 553.19,376.01 553.87,376.01 554.55,376.01 555.22,376.01 555.89,376.01 556.54,376.01 557.19,376.01 557.83,376.01 558.47,376.01 559.10,376.01 559.72,376.01 560.33,376.01 560.94,376.01 561.54,376.01 562.13,376.01 562.72,376.01 563.31,376.01 563.88,376.01 564.45,376.01 "
           style="fill:none;stroke:#254f79;stroke-width:0.75;stroke-linecap:round;stroke-linejoin:round;stroke-miterlimit:10"
           id="polyline132" />
        <polyline
           points="299.55,341.73 339.33,376.01 362.61,376.01 379.12,376.01 391.93,376.01 402.39,376.01 411.24,376.01 418.91,376.01 425.67,376.01 431.71,376.01 437.19,376.01 442.18,376.01 446.77,376.01 451.03,376.01 454.99,376.01 458.69,376.01 462.17,376.01 465.45,374.09 468.56,373.48 471.50,373.73 474.30,373.48 476.97,373.63 479.52,373.70 481.97,373.65 484.31,373.64 486.56,373.62 488.73,373.61 490.81,373.59 492.83,373.58 494.77,373.56 496.66,373.54 498.48,373.51 500.25,373.48 501.96,373.45 503.62,373.42 505.24,373.39 506.81,373.36 508.34,373.32 509.83,373.29 511.29,373.25 512.70,373.22 514.09,373.18 515.44,373.15 516.76,373.12 518.05,373.08 519.31,373.05 520.54,373.02 521.75,372.98 522.94,372.95 524.10,372.92 525.23,372.89 526.35,372.86 527.44,372.83 528.51,372.80 529.57,372.77 530.60,372.74 531.62,372.72 532.61,372.69 533.60,372.66 534.56,372.64 535.51,372.61 536.44,372.59 537.36,372.57 538.27,372.54 539.16,372.52 540.03,372.50 540.89,372.48 541.75,372.46 542.58,372.44 543.41,372.42 544.22,372.40 545.03,372.38 545.82,372.36 546.60,372.35 547.37,372.33 548.13,372.31 548.88,372.30 549.62,372.28 550.35,372.26 551.07,372.25 551.79,372.24 552.49,372.22 553.19,372.21 553.87,372.20 554.55,372.18 555.22,372.17 555.89,372.16 556.54,372.15 557.19,372.13 557.83,372.12 558.47,372.11 559.10,372.10 559.72,372.09 560.33,372.08 560.94,372.07 561.54,372.06 562.13,372.06 562.72,372.05 563.31,372.04 563.88,372.03 564.45,372.02 "
           style="fill:none;stroke:#2c5984;stroke-width:0.75;stroke-linecap:round;stroke-linejoin:round;stroke-miterlimit:10"
           id="polyline133" />
        <polyline
           points="299.55,240.94 339.33,253.41 362.61,257.49 379.12,264.29 391.93,269.56 402.39,274.27 411.24,279.14 418.91,283.23 425.67,288.55 431.71,293.72 437.19,301.45 442.18,310.04 446.77,320.01 451.03,328.95 454.99,337.82 458.69,346.50 462.17,355.52 465.45,364.12 468.56,369.44 471.50,368.91 474.30,368.88 476.97,369.16 479.52,369.10 481.97,369.08 484.31,369.06 486.56,369.04 488.73,369.03 490.81,369.01 492.83,368.99 494.77,368.97 496.66,368.94 498.48,368.91 500.25,368.88 501.96,368.84 503.62,368.80 505.24,368.76 506.81,368.72 508.34,368.68 509.83,368.64 511.29,368.59 512.70,368.55 514.09,368.51 515.44,368.47 516.76,368.42 518.05,368.38 519.31,368.34 520.54,368.30 521.75,368.25 522.94,368.21 524.10,368.17 525.23,368.13 526.35,368.09 527.44,368.05 528.51,368.01 529.57,367.98 530.60,367.94 531.62,367.90 532.61,367.87 533.60,367.83 534.56,367.80 535.51,367.77 536.44,367.73 537.36,367.70 538.27,367.67 539.16,367.64 540.03,367.61 540.89,367.58 541.75,367.55 542.58,367.53 543.41,367.50 544.22,367.47 545.03,367.45 545.82,367.42 546.60,367.40 547.37,367.37 548.13,367.35 548.88,367.33 549.62,367.31 550.35,367.28 551.07,367.26 551.79,367.24 552.49,367.22 553.19,367.20 553.87,367.19 554.55,367.17 555.22,367.15 555.89,367.13 556.54,367.12 557.19,367.10 557.83,367.09 558.47,367.07 559.10,367.06 559.72,367.04 560.33,367.03 560.94,367.01 561.54,367.00 562.13,366.99 562.72,366.97 563.31,366.96 563.88,366.95 564.45,366.94 "
           style="fill:none;stroke:#33628f;stroke-width:0.75;stroke-linecap:round;stroke-linejoin:round;stroke-miterlimit:10"
           id="polyline134" />
        <polyline
           points="299.55,225.66 339.33,234.24 362.61,237.34 379.12,240.41 391.93,243.62 402.39,249.05 411.24,255.05 418.91,261.76 425.67,267.80 431.71,273.09 437.19,281.13 442.18,288.23 446.77,295.99 451.03,305.67 454.99,314.48 458.69,323.94 462.17,333.46 465.45,341.84 468.56,350.37 471.50,358.32 474.30,364.10 476.97,364.79 479.52,364.46 481.97,364.55 484.31,364.48 486.56,364.48 488.73,364.45 490.81,364.44 492.83,364.41 494.77,364.38 496.66,364.34 498.48,364.30 500.25,364.25 501.96,364.20 503.62,364.15 505.24,364.10 506.81,364.04 508.34,363.98 509.83,363.93 511.29,363.87 512.70,363.81 514.09,363.75 515.44,363.69 516.76,363.63 518.05,363.58 519.31,363.52 520.54,363.46 521.75,363.40 522.94,363.35 524.10,363.29 525.23,363.23 526.35,363.18 527.44,363.13 528.51,363.07 529.57,363.02 530.60,362.97 531.62,362.92 532.61,362.87 533.60,362.82 534.56,362.78 535.51,362.73 536.44,362.68 537.36,362.64 538.27,362.60 539.16,362.56 540.03,362.51 540.89,362.47 541.75,362.43 542.58,362.40 543.41,362.36 544.22,362.32 545.03,362.29 545.82,362.25 546.60,362.22 547.37,362.18 548.13,362.15 548.88,362.12 549.62,362.09 550.35,362.06 551.07,362.03 551.79,362.00 552.49,361.98 553.19,361.95 553.87,361.92 554.55,361.90 555.22,361.87 555.89,361.85 556.54,361.83 557.19,361.81 557.83,361.78 558.47,361.76 559.10,361.74 559.72,361.72 560.33,361.70 560.94,361.68 561.54,361.66 562.13,361.65 562.72,361.63 563.31,361.61 563.88,361.60 564.45,361.58 "
           style="fill:none;stroke:#3b6d98;stroke-width:0.75;stroke-linecap:round;stroke-linejoin:round;stroke-miterlimit:10"
           id="polyline135" />
        <polyline
           points="299.55,294.91 339.33,330.17 362.61,335.93 379.12,341.44 391.93,350.41 402.39,361.25 411.24,371.31 418.91,375.94 425.67,374.98 431.71,374.56 437.19,374.55 442.18,374.00 446.77,373.76 451.03,373.23 454.99,372.70 458.69,371.65 462.17,368.59 465.45,367.71 468.56,364.74 471.50,363.16 474.30,360.95 476.97,359.42 479.52,359.84 481.97,359.64 484.31,359.66 486.56,359.62 488.73,359.61 490.81,359.59 492.83,359.55 494.77,359.51 496.66,359.46 498.48,359.41 500.25,359.35 501.96,359.29 503.62,359.22 505.24,359.15 506.81,359.08 508.34,359.01 509.83,358.93 511.29,358.86 512.70,358.78 514.09,358.71 515.44,358.63 516.76,358.55 518.05,358.48 519.31,358.40 520.54,358.33 521.75,358.26 522.94,358.18 524.10,358.11 525.23,358.04 526.35,357.97 527.44,357.90 528.51,357.83 529.57,357.77 530.60,357.70 531.62,357.64 532.61,357.57 533.60,357.51 534.56,357.45 535.51,357.39 536.44,357.33 537.36,357.28 538.27,357.22 539.16,357.17 540.03,357.11 540.89,357.06 541.75,357.01 542.58,356.96 543.41,356.91 544.22,356.87 545.03,356.82 545.82,356.78 546.60,356.73 547.37,356.69 548.13,356.65 548.88,356.61 549.62,356.57 550.35,356.53 551.07,356.49 551.79,356.46 552.49,356.42 553.19,356.39 553.87,356.35 554.55,356.32 555.22,356.29 555.89,356.26 556.54,356.23 557.19,356.20 557.83,356.17 558.47,356.14 559.10,356.12 559.72,356.09 560.33,356.07 560.94,356.04 561.54,356.02 562.13,355.99 562.72,355.97 563.31,355.95 563.88,355.93 564.45,355.91 "
           style="fill:none;stroke:#43799f;stroke-width:0.75;stroke-linecap:round;stroke-linejoin:round;stroke-miterlimit:10"
           id="polyline136" />
        <polyline
           points="299.55,279.94 339.33,311.17 362.61,317.20 379.12,323.12 391.93,330.06 402.39,338.74 411.24,348.12 418.91,357.96 425.67,366.90 431.71,371.22 437.19,369.31 442.18,369.80 446.77,368.98 451.03,368.60 454.99,367.82 458.69,366.14 462.17,362.91 465.45,361.73 468.56,358.59 471.50,357.44 474.30,354.31 476.97,354.95 479.52,354.59 481.97,354.65 484.31,354.58 486.56,354.58 488.73,354.56 490.81,354.53 492.83,354.49 494.77,354.43 496.66,354.37 498.48,354.30 500.25,354.23 501.96,354.15 503.62,354.07 505.24,353.98 506.81,353.89 508.34,353.80 509.83,353.71 511.29,353.62 512.70,353.53 514.09,353.43 515.44,353.34 516.76,353.25 518.05,353.16 519.31,353.06 520.54,352.97 521.75,352.88 522.94,352.79 524.10,352.70 525.23,352.62 526.35,352.53 527.44,352.45 528.51,352.36 529.57,352.28 530.60,352.20 531.62,352.12 532.61,352.04 533.60,351.97 534.56,351.89 535.51,351.82 536.44,351.75 537.36,351.68 538.27,351.61 539.16,351.54 540.03,351.48 540.89,351.42 541.75,351.35 542.58,351.29 543.41,351.23 544.22,351.18 545.03,351.12 545.82,351.06 546.60,351.01 547.37,350.96 548.13,350.91 548.88,350.86 549.62,350.81 550.35,350.76 551.07,350.72 551.79,350.67 552.49,350.63 553.19,350.59 553.87,350.55 554.55,350.51 555.22,350.47 555.89,350.43 556.54,350.39 557.19,350.36 557.83,350.32 558.47,350.29 559.10,350.26 559.72,350.23 560.33,350.19 560.94,350.16 561.54,350.14 562.13,350.11 562.72,350.08 563.31,350.05 563.88,350.03 564.45,350.00 "
           style="fill:none;stroke:#4b84a6;stroke-width:0.75;stroke-linecap:round;stroke-linejoin:round;stroke-miterlimit:10"
           id="polyline137" />
        <polyline
           points="299.55,335.17 339.33,374.57 362.61,376.01 379.12,376.01 391.93,376.01 402.39,375.88 411.24,374.29 418.91,370.26 425.67,368.82 431.71,365.66 437.19,365.63 442.18,365.09 446.77,364.53 451.03,363.77 454.99,362.79 458.69,359.75 462.17,358.19 465.45,354.72 468.56,353.62 471.50,350.42 474.30,349.80 476.97,349.46 479.52,349.46 481.97,349.38 484.31,349.36 486.56,349.37 488.73,349.35 490.81,349.31 492.83,349.26 494.77,349.19 496.66,349.11 498.48,349.03 500.25,348.93 501.96,348.84 503.62,348.74 505.24,348.63 506.81,348.53 508.34,348.42 509.83,348.31 511.29,348.20 512.70,348.09 514.09,347.98 515.44,347.87 516.76,347.76 518.05,347.65 519.31,347.54 520.54,347.43 521.75,347.32 522.94,347.22 524.10,347.11 525.23,347.01 526.35,346.91 527.44,346.80 528.51,346.71 529.57,346.61 530.60,346.51 531.62,346.42 532.61,346.33 533.60,346.24 534.56,346.15 535.51,346.06 536.44,345.98 537.36,345.89 538.27,345.81 539.16,345.73 540.03,345.66 540.89,345.58 541.75,345.51 542.58,345.44 543.41,345.37 544.22,345.30 545.03,345.23 545.82,345.17 546.60,345.10 547.37,345.04 548.13,344.98 548.88,344.92 549.62,344.87 550.35,344.81 551.07,344.76 551.79,344.70 552.49,344.65 553.19,344.60 553.87,344.56 554.55,344.51 555.22,344.46 555.89,344.42 556.54,344.37 557.19,344.33 557.83,344.29 558.47,344.25 559.10,344.21 559.72,344.18 560.33,344.14 560.94,344.10 561.54,344.07 562.13,344.04 562.72,344.00 563.31,343.97 563.88,343.94 564.45,343.91 "
           style="fill:none;stroke:#5390ae;stroke-width:0.75;stroke-linecap:round;stroke-linejoin:round;stroke-miterlimit:10"
           id="polyline138" />
        <polyline
           points="299.55,288.49 339.33,317.64 362.61,319.94 379.12,320.48 391.93,321.72 402.39,326.37 411.24,333.31 418.91,341.09 425.67,349.15 431.71,356.67 437.19,361.29 442.18,360.32 446.77,359.56 451.03,358.66 454.99,357.14 458.69,353.38 462.17,351.91 465.45,348.86 468.56,347.05 471.50,344.28 474.30,344.40 476.97,344.01 479.52,344.10 481.97,343.99 484.31,344.02 486.56,344.06 488.73,344.02 490.81,343.97 492.83,343.89 494.77,343.81 496.66,343.71 498.48,343.61 500.25,343.50 501.96,343.38 503.62,343.26 505.24,343.14 506.81,343.02 508.34,342.89 509.83,342.76 511.29,342.63 512.70,342.50 514.09,342.37 515.44,342.24 516.76,342.12 518.05,341.99 519.31,341.86 520.54,341.73 521.75,341.61 522.94,341.48 524.10,341.36 525.23,341.24 526.35,341.12 527.44,341.01 528.51,340.89 529.57,340.78 530.60,340.67 531.62,340.56 532.61,340.45 533.60,340.35 534.56,340.25 535.51,340.15 536.44,340.05 537.36,339.95 538.27,339.86 539.16,339.77 540.03,339.68 540.89,339.59 541.75,339.51 542.58,339.43 543.41,339.35 544.22,339.27 545.03,339.19 545.82,339.12 546.60,339.04 547.37,338.97 548.13,338.90 548.88,338.84 549.62,338.77 550.35,338.71 551.07,338.64 551.79,338.58 552.49,338.53 553.19,338.47 553.87,338.41 554.55,338.36 555.22,338.31 555.89,338.26 556.54,338.21 557.19,338.16 557.83,338.11 558.47,338.07 559.10,338.02 559.72,337.98 560.33,337.94 560.94,337.90 561.54,337.86 562.13,337.82 562.72,337.78 563.31,337.75 563.88,337.71 564.45,337.68 "
           style="fill:none;stroke:#5c9db9;stroke-width:0.75;stroke-linecap:round;stroke-linejoin:round;stroke-miterlimit:10"
           id="polyline139" />
        <polyline
           points="299.55,216.67 339.33,223.89 362.61,225.02 379.12,226.86 391.93,230.01 402.39,233.62 411.24,237.65 418.91,242.80 425.67,248.68 431.71,254.64 437.19,260.63 442.18,266.00 446.77,273.31 451.03,280.00 454.99,288.15 458.69,295.82 462.17,303.89 465.45,312.38 468.56,321.56 471.50,329.07 474.30,335.27 476.97,338.74 479.52,338.56 481.97,338.46 484.31,338.63 486.56,338.66 488.73,338.60 490.81,338.52 492.83,338.42 494.77,338.32 496.66,338.20 498.48,338.07 500.25,337.94 501.96,337.81 503.62,337.67 505.24,337.52 506.81,337.38 508.34,337.23 509.83,337.08 511.29,336.94 512.70,336.79 514.09,336.64 515.44,336.49 516.76,336.34 518.05,336.19 519.31,336.05 520.54,335.90 521.75,335.76 522.94,335.62 524.10,335.48 525.23,335.34 526.35,335.21 527.44,335.07 528.51,334.94 529.57,334.82 530.60,334.69 531.62,334.57 532.61,334.45 533.60,334.33 534.56,334.21 535.51,334.10 536.44,333.99 537.36,333.88 538.27,333.78 539.16,333.67 540.03,333.57 540.89,333.48 541.75,333.38 542.58,333.29 543.41,333.20 544.22,333.11 545.03,333.02 545.82,332.94 546.60,332.85 547.37,332.77 548.13,332.70 548.88,332.62 549.62,332.55 550.35,332.48 551.07,332.41 551.79,332.34 552.49,332.27 553.19,332.21 553.87,332.15 554.55,332.09 555.22,332.03 555.89,331.97 556.54,331.92 557.19,331.86 557.83,331.81 558.47,331.76 559.10,331.71 559.72,331.66 560.33,331.61 560.94,331.57 561.54,331.52 562.13,331.48 562.72,331.44 563.31,331.40 563.88,331.36 564.45,331.32 "
           style="fill:none;stroke:#65aac5;stroke-width:0.75;stroke-linecap:round;stroke-linejoin:round;stroke-miterlimit:10"
           id="polyline140" />
        <polyline
           points="299.55,230.74 339.33,236.99 362.61,232.60 379.12,229.78 391.93,227.57 402.39,226.15 411.24,226.64 418.91,228.41 425.67,232.09 431.71,238.01 437.19,241.88 442.18,247.47 446.77,252.40 451.03,259.49 454.99,266.75 458.69,273.58 462.17,280.76 465.45,288.90 468.56,297.85 471.50,306.03 474.30,314.11 476.97,321.74 479.52,328.42 481.97,332.70 484.31,333.35 486.56,333.16 488.73,333.10 490.81,332.98 492.83,332.86 494.77,332.73 496.66,332.58 498.48,332.44 500.25,332.28 501.96,332.12 503.62,331.96 505.24,331.80 506.81,331.63 508.34,331.46 509.83,331.29 511.29,331.12 512.70,330.95 514.09,330.78 515.44,330.61 516.76,330.45 518.05,330.28 519.31,330.12 520.54,329.95 521.75,329.79 522.94,329.63 524.10,329.48 525.23,329.32 526.35,329.17 527.44,329.02 528.51,328.88 529.57,328.73 530.60,328.59 531.62,328.46 532.61,328.32 533.60,328.19 534.56,328.06 535.51,327.94 536.44,327.81 537.36,327.69 538.27,327.58 539.16,327.46 540.03,327.35 540.89,327.24 541.75,327.14 542.58,327.03 543.41,326.93 544.22,326.84 545.03,326.74 545.82,326.65 546.60,326.56 547.37,326.47 548.13,326.38 548.88,326.30 549.62,326.22 550.35,326.14 551.07,326.06 551.79,325.99 552.49,325.92 553.19,325.85 553.87,325.78 554.55,325.71 555.22,325.65 555.89,325.58 556.54,325.52 557.19,325.46 557.83,325.40 558.47,325.35 559.10,325.29 559.72,325.24 560.33,325.19 560.94,325.14 561.54,325.09 562.13,325.04 562.72,325.00 563.31,324.96 563.88,324.91 564.45,324.87 "
           style="fill:none;stroke:#6eb7d1;stroke-width:0.75;stroke-linecap:round;stroke-linejoin:round;stroke-miterlimit:10"
           id="polyline141" />
        <polyline
           points="299.55,257.19 339.33,281.29 362.61,287.73 379.12,295.64 391.93,301.78 402.39,307.81 411.24,311.35 418.91,317.21 425.67,324.17 431.71,332.00 437.19,341.04 442.18,347.99 446.77,352.25 451.03,353.89 454.99,350.86 458.69,348.70 462.17,344.99 465.45,342.97 468.56,338.90 471.50,338.28 474.30,336.24 476.97,332.79 479.52,331.34 481.97,328.58 484.31,327.63 486.56,327.69 488.73,327.51 490.81,327.38 492.83,327.22 494.77,327.05 496.66,326.88 498.48,326.71 500.25,326.53 501.96,326.34 503.62,326.16 505.24,325.97 506.81,325.78 508.34,325.59 509.83,325.40 511.29,325.20 512.70,325.01 514.09,324.82 515.44,324.63 516.76,324.45 518.05,324.26 519.31,324.08 520.54,323.89 521.75,323.72 522.94,323.54 524.10,323.37 525.23,323.20 526.35,323.03 527.44,322.87 528.51,322.70 529.57,322.55 530.60,322.39 531.62,322.24 532.61,322.09 533.60,321.95 534.56,321.81 535.51,321.67 536.44,321.54 537.36,321.40 538.27,321.28 539.16,321.15 540.03,321.03 540.89,320.91 541.75,320.79 542.58,320.68 543.41,320.57 544.22,320.47 545.03,320.36 545.82,320.26 546.60,320.16 547.37,320.07 548.13,319.97 548.88,319.88 549.62,319.80 550.35,319.71 551.07,319.63 551.79,319.55 552.49,319.47 553.19,319.39 553.87,319.32 554.55,319.25 555.22,319.18 555.89,319.11 556.54,319.04 557.19,318.98 557.83,318.91 558.47,318.85 559.10,318.80 559.72,318.74 560.33,318.68 560.94,318.63 561.54,318.58 562.13,318.53 562.72,318.48 563.31,318.43 563.88,318.38 564.45,318.34 "
           style="fill:none;stroke:#7cc2d7;stroke-width:0.75;stroke-linecap:round;stroke-linejoin:round;stroke-miterlimit:10"
           id="polyline142" />
        <polyline
           points="299.55,325.64 339.33,367.07 362.61,372.55 379.12,375.45 391.93,372.08 402.39,371.28 411.24,369.07 418.91,365.25 425.67,363.46 431.71,359.73 437.19,356.65 442.18,354.43 446.77,351.71 451.03,347.77 454.99,343.81 458.69,341.92 462.17,339.01 465.45,335.80 468.56,333.26 471.50,331.67 474.30,328.17 476.97,326.59 479.52,323.98 481.97,322.22 484.31,322.37 486.56,322.05 488.73,321.89 490.81,321.69 492.83,321.50 494.77,321.30 496.66,321.10 498.48,320.89 500.25,320.69 501.96,320.48 503.62,320.26 505.24,320.05 506.81,319.83 508.34,319.62 509.83,319.40 511.29,319.19 512.70,318.98 514.09,318.76 515.44,318.55 516.76,318.34 518.05,318.14 519.31,317.94 520.54,317.74 521.75,317.54 522.94,317.35 524.10,317.16 525.23,316.97 526.35,316.79 527.44,316.61 528.51,316.43 529.57,316.26 530.60,316.09 531.62,315.93 532.61,315.77 533.60,315.61 534.56,315.46 535.51,315.31 536.44,315.16 537.36,315.02 538.27,314.88 539.16,314.75 540.03,314.62 540.89,314.49 541.75,314.36 542.58,314.24 543.41,314.13 544.22,314.01 545.03,313.90 545.82,313.79 546.60,313.69 547.37,313.58 548.13,313.48 548.88,313.39 549.62,313.29 550.35,313.20 551.07,313.11 551.79,313.03 552.49,312.94 553.19,312.86 553.87,312.78 554.55,312.71 555.22,312.63 555.89,312.56 556.54,312.49 557.19,312.42 557.83,312.35 558.47,312.29 559.10,312.23 559.72,312.17 560.33,312.11 560.94,312.05 561.54,312.00 562.13,311.94 562.72,311.89 563.31,311.84 563.88,311.79 564.45,311.74 "
           style="fill:none;stroke:#8dcbda;stroke-width:0.75;stroke-linecap:round;stroke-linejoin:round;stroke-miterlimit:10"
           id="polyline143" />
        <polyline
           points="299.55,371.51 339.33,376.01 362.61,376.01 379.12,371.38 391.93,367.92 402.39,367.72 411.24,363.86 418.91,361.32 425.67,357.08 431.71,354.43 437.19,350.27 442.18,348.25 446.77,343.90 451.03,340.96 454.99,338.28 458.69,334.06 462.17,332.68 465.45,327.99 468.56,327.29 471.50,324.25 474.30,321.58 476.97,319.73 479.52,316.72 481.97,317.14 484.31,316.65 486.56,316.42 488.73,316.16 490.81,315.93 492.83,315.70 494.77,315.47 496.66,315.24 498.48,315.00 500.25,314.76 501.96,314.52 503.62,314.28 505.24,314.04 506.81,313.80 508.34,313.56 509.83,313.32 511.29,313.08 512.70,312.84 514.09,312.61 515.44,312.38 516.76,312.15 518.05,311.92 519.31,311.70 520.54,311.48 521.75,311.27 522.94,311.06 524.10,310.85 525.23,310.65 526.35,310.45 527.44,310.26 528.51,310.07 529.57,309.88 530.60,309.70 531.62,309.52 532.61,309.35 533.60,309.18 534.56,309.02 535.51,308.86 536.44,308.70 537.36,308.55 538.27,308.41 539.16,308.26 540.03,308.12 540.89,307.99 541.75,307.85 542.58,307.73 543.41,307.60 544.22,307.48 545.03,307.36 545.82,307.25 546.60,307.14 547.37,307.03 548.13,306.92 548.88,306.82 549.62,306.72 550.35,306.62 551.07,306.53 551.79,306.44 552.49,306.35 553.19,306.27 553.87,306.18 554.55,306.10 555.22,306.02 555.89,305.95 556.54,305.88 557.19,305.80 557.83,305.73 558.47,305.67 559.10,305.60 559.72,305.54 560.33,305.48 560.94,305.42 561.54,305.36 562.13,305.30 562.72,305.25 563.31,305.20 563.88,305.15 564.45,305.10 "
           style="fill:none;stroke:#9dd4dd;stroke-width:0.75;stroke-linecap:round;stroke-linejoin:round;stroke-miterlimit:10"
           id="polyline144" />
        <polyline
           points="299.55,255.45 339.33,274.09 362.61,275.38 379.12,278.89 391.93,282.97 402.39,288.37 411.24,292.09 418.91,296.18 425.67,299.45 431.71,302.92 437.19,306.13 442.18,308.94 446.77,311.44 451.03,315.02 454.99,318.87 458.69,321.27 462.17,321.55 465.45,322.65 468.56,320.30 471.50,316.29 474.30,315.35 476.97,311.83 479.52,311.82 481.97,311.29 484.31,311.00 486.56,310.67 488.73,310.38 490.81,310.10 492.83,309.83 494.77,309.56 496.66,309.30 498.48,309.03 500.25,308.76 501.96,308.49 503.62,308.22 505.24,307.95 506.81,307.68 508.34,307.41 509.83,307.15 511.29,306.88 512.70,306.62 514.09,306.37 515.44,306.11 516.76,305.86 518.05,305.62 519.31,305.38 520.54,305.14 521.75,304.91 522.94,304.68 524.10,304.46 525.23,304.24 526.35,304.03 527.44,303.82 528.51,303.62 529.57,303.42 530.60,303.23 531.62,303.04 532.61,302.85 533.60,302.68 534.56,302.50 535.51,302.33 536.44,302.17 537.36,302.01 538.27,301.85 539.16,301.70 540.03,301.56 540.89,301.41 541.75,301.27 542.58,301.14 543.41,301.01 544.22,300.88 545.03,300.76 545.82,300.64 546.60,300.52 547.37,300.41 548.13,300.30 548.88,300.19 549.62,300.09 550.35,299.99 551.07,299.89 551.79,299.80 552.49,299.71 553.19,299.62 553.87,299.53 554.55,299.45 555.22,299.37 555.89,299.29 556.54,299.21 557.19,299.14 557.83,299.07 558.47,299.00 559.10,298.93 559.72,298.86 560.33,298.80 560.94,298.74 561.54,298.68 562.13,298.62 562.72,298.57 563.31,298.51 563.88,298.46 564.45,298.41 "
           style="fill:none;stroke:#afdcdd;stroke-width:0.75;stroke-linecap:round;stroke-linejoin:round;stroke-miterlimit:10"
           id="polyline145" />
        <polyline
           points="299.55,266.62 339.33,289.64 362.61,294.45 379.12,297.36 391.93,296.91 402.39,297.26 411.24,298.79 418.91,298.61 425.67,297.54 431.71,295.23 437.19,293.40 442.18,295.12 446.77,296.80 451.03,298.39 454.99,301.44 458.69,305.13 462.17,308.54 465.45,310.33 468.56,310.23 471.50,310.82 474.30,307.83 476.97,306.29 479.52,306.00 481.97,305.59 484.31,305.20 486.56,304.84 488.73,304.50 490.81,304.19 492.83,303.88 494.77,303.58 496.66,303.28 498.48,302.98 500.25,302.68 501.96,302.38 503.62,302.08 505.24,301.77 506.81,301.48 508.34,301.18 509.83,300.89 511.29,300.60 512.70,300.31 514.09,300.03 515.44,299.76 516.76,299.49 518.05,299.22 519.31,298.96 520.54,298.71 521.75,298.46 522.94,298.21 524.10,297.98 525.23,297.74 526.35,297.52 527.44,297.30 528.51,297.08 529.57,296.87 530.60,296.67 531.62,296.47 532.61,296.28 533.60,296.09 534.56,295.91 535.51,295.73 536.44,295.56 537.36,295.40 538.27,295.23 539.16,295.08 540.03,294.92 540.89,294.78 541.75,294.63 542.58,294.49 543.41,294.36 544.22,294.23 545.03,294.10 545.82,293.97 546.60,293.85 547.37,293.74 548.13,293.63 548.88,293.52 549.62,293.41 550.35,293.31 551.07,293.21 551.79,293.11 552.49,293.02 553.19,292.93 553.87,292.84 554.55,292.75 555.22,292.67 555.89,292.59 556.54,292.51 557.19,292.44 557.83,292.36 558.47,292.29 559.10,292.22 559.72,292.16 560.33,292.09 560.94,292.03 561.54,291.97 562.13,291.91 562.72,291.85 563.31,291.80 563.88,291.74 564.45,291.69 "
           style="fill:none;stroke:#c8dfd1;stroke-width:0.75;stroke-linecap:round;stroke-linejoin:round;stroke-miterlimit:10"
           id="polyline146" />
        <polyline
           points="299.55,268.52 339.33,287.60 362.61,286.30 379.12,284.08 391.93,283.80 402.39,282.07 411.24,279.67 418.91,274.64 425.67,273.90 431.71,274.56 437.19,274.61 442.18,276.13 446.77,277.35 451.03,278.62 454.99,279.38 458.69,282.47 462.17,285.68 465.45,288.46 468.56,290.43 471.50,294.13 474.30,298.00 476.97,300.53 479.52,300.21 481.97,299.74 484.31,299.30 486.56,298.91 488.73,298.55 490.81,298.20 492.83,297.86 494.77,297.53 496.66,297.20 498.48,296.86 500.25,296.52 501.96,296.18 503.62,295.85 505.24,295.51 506.81,295.18 508.34,294.86 509.83,294.54 511.29,294.22 512.70,293.91 514.09,293.61 515.44,293.31 516.76,293.02 518.05,292.74 519.31,292.46 520.54,292.19 521.75,291.92 522.94,291.66 524.10,291.41 525.23,291.17 526.35,290.93 527.44,290.70 528.51,290.47 529.57,290.25 530.60,290.04 531.62,289.84 532.61,289.64 533.60,289.44 534.56,289.25 535.51,289.07 536.44,288.89 537.36,288.72 538.27,288.55 539.16,288.39 540.03,288.23 540.89,288.08 541.75,287.94 542.58,287.79 543.41,287.65 544.22,287.52 545.03,287.39 545.82,287.26 546.60,287.14 547.37,287.02 548.13,286.91 548.88,286.80 549.62,286.69 550.35,286.59 551.07,286.49 551.79,286.39 552.49,286.29 553.19,286.20 553.87,286.11 554.55,286.03 555.22,285.94 555.89,285.86 556.54,285.78 557.19,285.71 557.83,285.63 558.47,285.56 559.10,285.49 559.72,285.43 560.33,285.36 560.94,285.30 561.54,285.24 562.13,285.18 562.72,285.12 563.31,285.06 563.88,285.01 564.45,284.96 "
           style="fill:none;stroke:#e0e2c5;stroke-width:0.75;stroke-linecap:round;stroke-linejoin:round;stroke-miterlimit:10"
           id="polyline147" />
        <polyline
           points="299.55,301.84 339.33,332.03 362.61,329.29 379.12,327.06 391.93,324.20 402.39,322.14 411.24,323.01 418.91,325.62 425.67,329.11 431.71,332.24 437.19,334.12 442.18,335.98 446.77,336.38 451.03,332.97 454.99,329.30 458.69,325.64 462.17,319.00 465.45,314.47 468.56,308.05 471.50,303.92 474.30,299.19 476.97,295.26 479.52,294.18 481.97,293.81 484.31,293.29 486.56,292.90 488.73,292.51 490.81,292.14 492.83,291.78 494.77,291.41 496.66,291.03 498.48,290.66 500.25,290.28 501.96,289.91 503.62,289.53 505.24,289.17 506.81,288.81 508.34,288.45 509.83,288.10 511.29,287.76 512.70,287.42 514.09,287.10 515.44,286.78 516.76,286.47 518.05,286.16 519.31,285.87 520.54,285.58 521.75,285.30 522.94,285.03 524.10,284.77 525.23,284.51 526.35,284.26 527.44,284.02 528.51,283.79 529.57,283.56 530.60,283.34 531.62,283.13 532.61,282.93 533.60,282.73 534.56,282.53 535.51,282.35 536.44,282.17 537.36,281.99 538.27,281.82 539.16,281.66 540.03,281.50 540.89,281.34 541.75,281.19 542.58,281.05 543.41,280.91 544.22,280.78 545.03,280.64 545.82,280.52 546.60,280.39 547.37,280.28 548.13,280.16 548.88,280.05 549.62,279.94 550.35,279.84 551.07,279.74 551.79,279.64 552.49,279.55 553.19,279.45 553.87,279.36 554.55,279.28 555.22,279.20 555.89,279.12 556.54,279.04 557.19,278.96 557.83,278.89 558.47,278.82 559.10,278.75 559.72,278.68 560.33,278.62 560.94,278.56 561.54,278.50 562.13,278.44 562.72,278.38 563.31,278.33 563.88,278.27 564.45,278.22 "
           style="fill:none;stroke:#f9e5b9;stroke-width:0.75;stroke-linecap:round;stroke-linejoin:round;stroke-miterlimit:10"
           id="polyline148" />
        <polyline
           points="299.55,248.32 339.33,260.49 362.61,259.68 379.12,257.74 391.93,254.70 402.39,253.27 411.24,253.15 418.91,252.39 425.67,252.17 431.71,252.18 437.19,251.55 442.18,251.46 446.77,250.96 451.03,251.35 454.99,255.76 458.69,260.03 462.17,264.90 465.45,269.53 468.56,274.23 471.50,278.89 474.30,283.47 476.97,287.17 479.52,288.56 481.97,287.66 484.31,287.17 486.56,286.81 488.73,286.38 490.81,286.02 492.83,285.63 494.77,285.22 496.66,284.80 498.48,284.38 500.25,283.96 501.96,283.54 503.62,283.13 505.24,282.73 506.81,282.34 508.34,281.95 509.83,281.57 511.29,281.20 512.70,280.85 514.09,280.50 515.44,280.16 516.76,279.83 518.05,279.51 519.31,279.20 520.54,278.90 521.75,278.60 522.94,278.32 524.10,278.05 525.23,277.78 526.35,277.53 527.44,277.28 528.51,277.04 529.57,276.81 530.60,276.59 531.62,276.37 532.61,276.16 533.60,275.96 534.56,275.76 535.51,275.57 536.44,275.39 537.36,275.22 538.27,275.05 539.16,274.88 540.03,274.72 540.89,274.57 541.75,274.42 542.58,274.28 543.41,274.14 544.22,274.00 545.03,273.87 545.82,273.75 546.60,273.63 547.37,273.51 548.13,273.39 548.88,273.28 549.62,273.18 550.35,273.08 551.07,272.98 551.79,272.88 552.49,272.79 553.19,272.70 553.87,272.61 554.55,272.53 555.22,272.44 555.89,272.36 556.54,272.29 557.19,272.21 557.83,272.14 558.47,272.07 559.10,272.01 559.72,271.94 560.33,271.88 560.94,271.82 561.54,271.76 562.13,271.70 562.72,271.65 563.31,271.59 563.88,271.54 564.45,271.49 "
           style="fill:none;stroke:#ffe1a6;stroke-width:0.75;stroke-linecap:round;stroke-linejoin:round;stroke-miterlimit:10"
           id="polyline149" />
        <polyline
           points="299.55,254.16 339.33,262.79 362.61,256.99 379.12,249.42 391.93,243.93 402.39,238.86 411.24,235.17 418.91,231.62 425.67,229.43 431.71,228.83 437.19,231.03 442.18,232.24 446.77,234.64 451.03,237.60 454.99,239.38 458.69,242.69 462.17,246.88 465.45,252.03 468.56,258.15 471.50,263.79 474.30,268.96 476.97,273.83 479.52,278.01 481.97,280.72 484.31,281.20 486.56,280.63 488.73,280.19 490.81,279.88 492.83,279.42 494.77,278.96 496.66,278.49 498.48,278.02 500.25,277.55 501.96,277.09 503.62,276.64 505.24,276.20 506.81,275.77 508.34,275.36 509.83,274.95 511.29,274.56 512.70,274.17 514.09,273.80 515.44,273.45 516.76,273.10 518.05,272.77 519.31,272.44 520.54,272.13 521.75,271.83 522.94,271.54 524.10,271.26 525.23,270.99 526.35,270.73 527.44,270.48 528.51,270.23 529.57,270.00 530.60,269.78 531.62,269.56 532.61,269.35 533.60,269.15 534.56,268.95 535.51,268.76 536.44,268.58 537.36,268.41 538.27,268.24 539.16,268.08 540.03,267.92 540.89,267.77 541.75,267.62 542.58,267.48 543.41,267.35 544.22,267.21 545.03,267.09 545.82,266.96 546.60,266.85 547.37,266.73 548.13,266.62 548.88,266.51 549.62,266.41 550.35,266.31 551.07,266.21 551.79,266.12 552.49,266.03 553.19,265.94 553.87,265.86 554.55,265.78 555.22,265.70 555.89,265.62 556.54,265.55 557.19,265.48 557.83,265.41 558.47,265.34 559.10,265.28 559.72,265.22 560.33,265.15 560.94,265.10 561.54,265.04 562.13,264.98 562.72,264.93 563.31,264.88 563.88,264.83 564.45,264.78 "
           style="fill:none;stroke:#ffda91;stroke-width:0.75;stroke-linecap:round;stroke-linejoin:round;stroke-miterlimit:10"
           id="polyline150" />
        <polyline
           points="299.55,215.40 339.33,215.69 362.61,213.69 379.12,213.69 391.93,213.69 402.39,213.69 411.24,213.69 418.91,213.69 425.67,213.69 431.71,213.69 437.19,213.69 442.18,214.79 446.77,216.95 451.03,220.11 454.99,222.50 458.69,225.45 462.17,229.25 465.45,233.37 468.56,237.05 471.50,241.52 474.30,246.26 476.97,251.93 479.52,258.58 481.97,265.69 484.31,270.74 486.56,273.53 488.73,274.28 490.81,273.67 492.83,273.17 494.77,272.63 496.66,272.09 498.48,271.57 500.25,271.05 501.96,270.54 503.62,270.05 505.24,269.57 506.81,269.11 508.34,268.66 509.83,268.23 511.29,267.81 512.70,267.41 514.09,267.02 515.44,266.65 516.76,266.29 518.05,265.94 519.31,265.61 520.54,265.29 521.75,264.99 522.94,264.69 524.10,264.41 525.23,264.13 526.35,263.87 527.44,263.62 528.51,263.38 529.57,263.15 530.60,262.92 531.62,262.71 532.61,262.50 533.60,262.31 534.56,262.11 535.51,261.93 536.44,261.75 537.36,261.58 538.27,261.42 539.16,261.26 540.03,261.11 540.89,260.96 541.75,260.82 542.58,260.68 543.41,260.55 544.22,260.43 545.03,260.30 545.82,260.19 546.60,260.07 547.37,259.96 548.13,259.86 548.88,259.76 549.62,259.66 550.35,259.56 551.07,259.47 551.79,259.38 552.49,259.29 553.19,259.21 553.87,259.13 554.55,259.05 555.22,258.98 555.89,258.91 556.54,258.84 557.19,258.77 557.83,258.70 558.47,258.64 559.10,258.58 559.72,258.52 560.33,258.46 560.94,258.41 561.54,258.35 562.13,258.30 562.72,258.25 563.31,258.20 563.88,258.15 564.45,258.11 "
           style="fill:none;stroke:#ffd47c;stroke-width:0.75;stroke-linecap:round;stroke-linejoin:round;stroke-miterlimit:10"
           id="polyline151" />
        <polyline
           points="299.55,370.37 339.33,376.01 362.61,375.49 379.12,364.96 391.93,366.48 402.39,361.98 411.24,357.99 418.91,355.72 425.67,350.53 431.71,346.25 437.19,343.56 442.18,337.87 446.77,332.13 451.03,326.71 454.99,320.93 458.69,314.77 462.17,310.05 465.45,303.53 468.56,299.25 471.50,293.26 474.30,288.43 476.97,284.72 479.52,280.54 481.97,276.62 484.31,273.69 486.56,269.67 488.73,267.95 490.81,267.50 492.83,266.84 494.77,266.22 496.66,265.61 498.48,265.02 500.25,264.45 501.96,263.89 503.62,263.36 505.24,262.84 506.81,262.35 508.34,261.87 509.83,261.41 511.29,260.98 512.70,260.56 514.09,260.15 515.44,259.77 516.76,259.40 518.05,259.05 519.31,258.71 520.54,258.39 521.75,258.08 522.94,257.79 524.10,257.50 525.23,257.23 526.35,256.98 527.44,256.73 528.51,256.49 529.57,256.27 530.60,256.05 531.62,255.84 532.61,255.64 533.60,255.45 534.56,255.27 535.51,255.09 536.44,254.92 537.36,254.76 538.27,254.60 539.16,254.45 540.03,254.30 540.89,254.17 541.75,254.03 542.58,253.90 543.41,253.78 544.22,253.66 545.03,253.54 545.82,253.43 546.60,253.32 547.37,253.22 548.13,253.12 548.88,253.03 549.62,252.93 550.35,252.84 551.07,252.76 551.79,252.67 552.49,252.59 553.19,252.52 553.87,252.44 554.55,252.37 555.22,252.30 555.89,252.23 556.54,252.16 557.19,252.10 557.83,252.04 558.47,251.98 559.10,251.92 559.72,251.87 560.33,251.82 560.94,251.76 561.54,251.71 562.13,251.67 562.72,251.62 563.31,251.57 563.88,251.53 564.45,251.49 "
           style="fill:none;stroke:#fecc6c;stroke-width:0.75;stroke-linecap:round;stroke-linejoin:round;stroke-miterlimit:10"
           id="polyline152" />
        <polyline
           points="299.55,292.33 339.33,314.97 362.61,309.10 379.12,305.77 391.93,302.08 402.39,295.97 411.24,289.94 418.91,283.34 425.67,276.03 431.71,270.85 437.19,265.53 442.18,261.33 446.77,258.06 451.03,256.25 454.99,254.01 458.69,251.61 462.17,251.06 465.45,251.64 468.56,251.14 471.50,252.39 474.30,254.46 476.97,256.62 479.52,257.96 481.97,258.65 484.31,260.13 486.56,262.35 488.73,262.19 490.81,261.17 492.83,260.43 494.77,259.72 496.66,259.03 498.48,258.37 500.25,257.74 501.96,257.13 503.62,256.55 505.24,256.00 506.81,255.48 508.34,254.98 509.83,254.50 511.29,254.05 512.70,253.61 514.09,253.20 515.44,252.81 516.76,252.44 518.05,252.09 519.31,251.75 520.54,251.43 521.75,251.13 522.94,250.84 524.10,250.57 525.23,250.31 526.35,250.06 527.44,249.82 528.51,249.59 529.57,249.38 530.60,249.17 531.62,248.97 532.61,248.78 533.60,248.60 534.56,248.43 535.51,248.26 536.44,248.10 537.36,247.95 538.27,247.81 539.16,247.66 540.03,247.53 540.89,247.40 541.75,247.28 542.58,247.16 543.41,247.04 544.22,246.93 545.03,246.82 545.82,246.72 546.60,246.62 547.37,246.53 548.13,246.43 548.88,246.35 549.62,246.26 550.35,246.18 551.07,246.10 551.79,246.02 552.49,245.95 553.19,245.88 553.87,245.81 554.55,245.74 555.22,245.68 555.89,245.62 556.54,245.56 557.19,245.50 557.83,245.44 558.47,245.39 559.10,245.34 559.72,245.29 560.33,245.24 560.94,245.19 561.54,245.15 562.13,245.10 562.72,245.06 563.31,245.02 563.88,244.98 564.45,244.94 "
           style="fill:none;stroke:#fbc166;stroke-width:0.75;stroke-linecap:round;stroke-linejoin:round;stroke-miterlimit:10"
           id="polyline153" />
        <polyline
           points="299.55,376.01 339.33,376.01 362.61,369.67 379.12,362.14 391.93,361.63 402.39,357.64 411.24,352.92 418.91,349.04 425.67,344.87 431.71,339.92 437.19,335.28 442.18,328.53 446.77,322.66 451.03,317.50 454.99,311.67 458.69,305.21 462.17,299.34 465.45,294.26 468.56,288.67 471.50,283.16 474.30,278.90 476.97,274.59 479.52,269.77 481.97,266.47 484.31,261.27 486.56,257.94 488.73,255.71 490.81,254.78 492.83,253.91 494.77,253.10 496.66,252.33 498.48,251.59 500.25,250.90 501.96,250.25 503.62,249.63 505.24,249.05 506.81,248.50 508.34,247.98 509.83,247.49 511.29,247.03 512.70,246.59 514.09,246.18 515.44,245.79 516.76,245.43 518.05,245.08 519.31,244.76 520.54,244.45 521.75,244.16 522.94,243.88 524.10,243.62 525.23,243.38 526.35,243.14 527.44,242.92 528.51,242.71 529.57,242.51 530.60,242.32 531.62,242.13 532.61,241.96 533.60,241.79 534.56,241.63 535.51,241.48 536.44,241.34 537.36,241.20 538.27,241.06 539.16,240.93 540.03,240.81 540.89,240.69 541.75,240.58 542.58,240.47 543.41,240.37 544.22,240.27 545.03,240.17 545.82,240.08 546.60,239.99 547.37,239.91 548.13,239.82 548.88,239.74 549.62,239.67 550.35,239.59 551.07,239.52 551.79,239.45 552.49,239.39 553.19,239.32 553.87,239.26 554.55,239.20 555.22,239.15 555.89,239.09 556.54,239.04 557.19,238.98 557.83,238.93 558.47,238.89 559.10,238.84 559.72,238.80 560.33,238.75 560.94,238.71 561.54,238.67 562.13,238.63 562.72,238.59 563.31,238.55 563.88,238.52 564.45,238.49 "
           style="fill:none;stroke:#f9b65f;stroke-width:0.75;stroke-linecap:round;stroke-linejoin:round;stroke-miterlimit:10"
           id="polyline154" />
        <polyline
           points="299.55,326.22 339.33,360.89 362.61,358.07 379.12,361.04 391.93,356.07 402.39,352.25 411.24,348.11 418.91,341.93 425.67,336.83 431.71,332.77 437.19,324.59 442.18,320.50 446.77,315.43 451.03,308.17 454.99,301.24 458.69,295.39 462.17,289.26 465.45,283.71 468.56,277.91 471.50,273.43 474.30,269.07 476.97,263.89 479.52,259.98 481.97,253.54 484.31,251.73 486.56,250.08 488.73,249.18 490.81,248.22 492.83,247.27 494.77,246.34 496.66,245.48 498.48,244.68 500.25,243.93 501.96,243.24 503.62,242.59 505.24,241.98 506.81,241.42 508.34,240.89 509.83,240.40 511.29,239.94 512.70,239.51 514.09,239.11 515.44,238.74 516.76,238.39 518.05,238.06 519.31,237.76 520.54,237.47 521.75,237.20 522.94,236.95 524.10,236.71 525.23,236.48 526.35,236.27 527.44,236.07 528.51,235.87 529.57,235.69 530.60,235.52 531.62,235.36 532.61,235.20 533.60,235.05 534.56,234.91 535.51,234.78 536.44,234.65 537.36,234.52 538.27,234.41 539.16,234.29 540.03,234.19 540.89,234.08 541.75,233.98 542.58,233.89 543.41,233.80 544.22,233.71 545.03,233.62 545.82,233.54 546.60,233.47 547.37,233.39 548.13,233.32 548.88,233.25 549.62,233.18 550.35,233.12 551.07,233.05 551.79,232.99 552.49,232.94 553.19,232.88 553.87,232.83 554.55,232.78 555.22,232.73 555.89,232.68 556.54,232.63 557.19,232.59 557.83,232.54 558.47,232.50 559.10,232.46 559.72,232.42 560.33,232.38 560.94,232.35 561.54,232.31 562.13,232.28 562.72,232.24 563.31,232.21 563.88,232.18 564.45,232.15 "
           style="fill:none;stroke:#f7ab58;stroke-width:0.75;stroke-linecap:round;stroke-linejoin:round;stroke-miterlimit:10"
           id="polyline155" />
        <polyline
           points="299.55,278.98 339.33,298.19 362.61,294.15 379.12,286.71 391.93,279.68 402.39,272.47 411.24,264.50 418.91,260.26 425.67,254.31 431.71,248.17 437.19,242.78 442.18,236.81 446.77,232.77 451.03,228.96 454.99,226.59 458.69,224.15 462.17,221.86 465.45,221.68 468.56,223.17 471.50,226.10 474.30,228.05 476.97,231.03 479.52,234.48 481.97,238.09 484.31,240.76 486.56,242.72 488.73,242.45 490.81,241.58 492.83,240.46 494.77,239.42 496.66,238.47 498.48,237.60 500.25,236.81 501.96,236.09 503.62,235.42 505.24,234.81 506.81,234.24 508.34,233.72 509.83,233.24 511.29,232.81 512.70,232.40 514.09,232.03 515.44,231.68 516.76,231.37 518.05,231.07 519.31,230.80 520.54,230.54 521.75,230.30 522.94,230.08 524.10,229.87 525.23,229.67 526.35,229.48 527.44,229.31 528.51,229.14 529.57,228.98 530.60,228.84 531.62,228.69 532.61,228.56 533.60,228.43 534.56,228.31 535.51,228.20 536.44,228.09 537.36,227.98 538.27,227.88 539.16,227.78 540.03,227.69 540.89,227.60 541.75,227.52 542.58,227.44 543.41,227.36 544.22,227.29 545.03,227.22 545.82,227.15 546.60,227.08 547.37,227.02 548.13,226.96 548.88,226.90 549.62,226.84 550.35,226.79 551.07,226.73 551.79,226.68 552.49,226.64 553.19,226.59 553.87,226.54 554.55,226.50 555.22,226.46 555.89,226.42 556.54,226.38 557.19,226.34 557.83,226.30 558.47,226.27 559.10,226.23 559.72,226.20 560.33,226.17 560.94,226.14 561.54,226.11 562.13,226.08 562.72,226.05 563.31,226.02 563.88,226.00 564.45,225.97 "
           style="fill:none;stroke:#f4a153;stroke-width:0.75;stroke-linecap:round;stroke-linejoin:round;stroke-miterlimit:10"
           id="polyline156" />
        <polyline
           points="299.55,354.51 339.33,376.01 362.61,362.80 379.12,357.24 391.93,351.32 402.39,345.59 411.24,341.50 418.91,335.76 425.67,329.97 431.71,322.65 437.19,318.26 442.18,311.32 446.77,303.09 451.03,297.16 454.99,290.70 458.69,284.69 462.17,278.60 465.45,272.26 468.56,267.29 471.50,262.84 474.30,257.09 476.97,251.86 479.52,245.89 481.97,243.86 484.31,241.01 486.56,237.81 488.73,236.52 490.81,234.76 492.83,233.42 494.77,232.25 496.66,231.24 498.48,230.34 500.25,229.53 501.96,228.81 503.62,228.15 505.24,227.55 506.81,227.01 508.34,226.53 509.83,226.09 511.29,225.69 512.70,225.33 514.09,225.01 515.44,224.71 516.76,224.43 518.05,224.18 519.31,223.95 520.54,223.73 521.75,223.53 522.94,223.34 524.10,223.17 525.23,223.00 526.35,222.85 527.44,222.71 528.51,222.57 529.57,222.44 530.60,222.32 531.62,222.20 532.61,222.09 533.60,221.99 534.56,221.89 535.51,221.80 536.44,221.71 537.36,221.62 538.27,221.54 539.16,221.46 540.03,221.39 540.89,221.31 541.75,221.25 542.58,221.18 543.41,221.12 544.22,221.06 545.03,221.00 545.82,220.94 546.60,220.89 547.37,220.84 548.13,220.79 548.88,220.74 549.62,220.70 550.35,220.65 551.07,220.61 551.79,220.57 552.49,220.53 553.19,220.49 553.87,220.45 554.55,220.42 555.22,220.38 555.89,220.35 556.54,220.32 557.19,220.29 557.83,220.26 558.47,220.23 559.10,220.20 559.72,220.18 560.33,220.15 560.94,220.13 561.54,220.10 562.13,220.08 562.72,220.06 563.31,220.03 563.88,220.01 564.45,219.99 "
           style="fill:none;stroke:#f2984e;stroke-width:0.75;stroke-linecap:round;stroke-linejoin:round;stroke-miterlimit:10"
           id="polyline157" />
        <polyline
           points="299.55,366.37 339.33,376.01 362.61,357.06 379.12,351.18 391.93,346.48 402.39,339.90 411.24,333.23 418.91,326.63 425.67,320.08 431.71,314.25 437.19,308.27 442.18,300.38 446.77,293.54 451.03,285.50 454.99,279.48 458.69,272.71 462.17,266.33 465.45,260.65 468.56,255.62 471.50,249.02 474.30,243.78 476.97,239.22 479.52,236.59 481.97,232.87 484.31,230.94 486.56,230.17 488.73,229.31 490.81,227.44 492.83,225.98 494.77,224.78 496.66,223.77 498.48,222.90 500.25,222.13 501.96,221.45 503.62,220.83 505.24,220.29 506.81,219.81 508.34,219.40 509.83,219.03 511.29,218.70 512.70,218.41 514.09,218.14 515.44,217.91 516.76,217.69 518.05,217.49 519.31,217.31 520.54,217.14 521.75,216.98 522.94,216.84 524.10,216.70 525.23,216.58 526.35,216.46 527.44,216.35 528.51,216.24 529.57,216.14 530.60,216.05 531.62,215.96 532.61,215.87 533.60,215.80 534.56,215.72 535.51,215.65 536.44,215.58 537.36,215.51 538.27,215.45 539.16,215.39 540.03,215.33 540.89,215.28 541.75,215.23 542.58,215.18 543.41,215.13 544.22,215.08 545.03,215.04 545.82,215.00 546.60,214.95 547.37,214.92 548.13,214.88 548.88,214.84 549.62,214.81 550.35,214.77 551.07,214.74 551.79,214.71 552.49,214.68 553.19,214.65 553.87,214.62 554.55,214.59 555.22,214.57 555.89,214.54 556.54,214.52 557.19,214.50 557.83,214.47 558.47,214.45 559.10,214.43 559.72,214.41 560.33,214.39 560.94,214.37 561.54,214.35 562.13,214.34 562.72,214.32 563.31,214.30 563.88,214.29 564.45,214.27 "
           style="fill:none;stroke:#f08f49;stroke-width:0.75;stroke-linecap:round;stroke-linejoin:round;stroke-miterlimit:10"
           id="polyline158" />
        <polyline
           points="299.55,363.41 339.33,376.01 362.61,351.32 379.12,346.08 391.93,339.25 402.39,333.19 411.24,325.26 418.91,317.57 425.67,310.09 431.71,304.56 437.19,295.10 442.18,287.00 446.77,279.56 451.03,272.37 454.99,266.23 458.69,259.14 462.17,252.27 465.45,245.34 468.56,240.16 471.50,235.32 474.30,231.36 476.97,227.61 479.52,224.60 481.97,223.54 484.31,222.76 486.56,221.95 488.73,220.30 490.81,219.11 492.83,217.99 494.77,216.99 496.66,216.13 498.48,215.37 500.25,214.71 501.96,214.13 503.62,213.61 505.24,213.17 506.81,212.81 508.34,212.49 509.83,212.23 511.29,211.99 512.70,211.78 514.09,211.60 515.44,211.43 516.76,211.28 518.05,211.14 519.31,211.01 520.54,210.89 521.75,210.78 522.94,210.68 524.10,210.59 525.23,210.50 526.35,210.42 527.44,210.34 528.51,210.26 529.57,210.20 530.60,210.13 531.62,210.07 532.61,210.01 533.60,209.95 534.56,209.90 535.51,209.85 536.44,209.80 537.36,209.76 538.27,209.71 539.16,209.67 540.03,209.63 540.89,209.59 541.75,209.56 542.58,209.52 543.41,209.49 544.22,209.46 545.03,209.43 545.82,209.40 546.60,209.37 547.37,209.34 548.13,209.31 548.88,209.29 549.62,209.26 550.35,209.24 551.07,209.22 551.79,209.19 552.49,209.17 553.19,209.15 553.87,209.13 554.55,209.11 555.22,209.10 555.89,209.08 556.54,209.06 557.19,209.04 557.83,209.03 558.47,209.01 559.10,209.00 559.72,208.98 560.33,208.97 560.94,208.96 561.54,208.94 562.13,208.93 562.72,208.92 563.31,208.91 563.88,208.90 564.45,208.89 "
           style="fill:none;stroke:#ed8448;stroke-width:0.75;stroke-linecap:round;stroke-linejoin:round;stroke-miterlimit:10"
           id="polyline159" />
        <polyline
           points="299.55,273.80 339.33,288.69 362.61,278.30 379.12,270.52 391.93,263.84 402.39,255.58 411.24,248.27 418.91,241.46 425.67,234.70 431.71,228.12 437.19,222.71 442.18,219.43 446.77,216.17 451.03,212.78 454.99,210.45 458.69,209.24 462.17,208.55 465.45,208.13 468.56,208.02 471.50,208.28 474.30,209.10 476.97,210.47 479.52,212.37 481.97,212.92 484.31,212.59 486.56,211.93 488.73,211.29 490.81,210.58 492.83,209.88 494.77,209.21 496.66,208.60 498.48,208.06 500.25,207.57 501.96,207.13 503.62,206.74 505.24,206.47 506.81,206.25 508.34,206.06 509.83,205.90 511.29,205.76 512.70,205.64 514.09,205.53 515.44,205.43 516.76,205.33 518.05,205.25 519.31,205.17 520.54,205.10 521.75,205.03 522.94,204.97 524.10,204.91 525.23,204.85 526.35,204.80 527.44,204.75 528.51,204.70 529.57,204.66 530.60,204.62 531.62,204.58 532.61,204.54 533.60,204.50 534.56,204.47 535.51,204.44 536.44,204.41 537.36,204.38 538.27,204.35 539.16,204.32 540.03,204.29 540.89,204.27 541.75,204.24 542.58,204.22 543.41,204.20 544.22,204.18 545.03,204.16 545.82,204.14 546.60,204.12 547.37,204.10 548.13,204.08 548.88,204.06 549.62,204.05 550.35,204.03 551.07,204.02 551.79,204.00 552.49,203.99 553.19,203.97 553.87,203.96 554.55,203.95 555.22,203.93 555.89,203.92 556.54,203.91 557.19,203.90 557.83,203.89 558.47,203.88 559.10,203.87 559.72,203.86 560.33,203.85 560.94,203.84 561.54,203.83 562.13,203.82 562.72,203.81 563.31,203.80 563.88,203.80 564.45,203.79 "
           style="fill:none;stroke:#eb794c;stroke-width:0.75;stroke-linecap:round;stroke-linejoin:round;stroke-miterlimit:10"
           id="polyline160" />
        <polyline
           points="299.55,320.70 339.33,352.30 362.61,347.07 379.12,339.15 391.93,330.33 402.39,320.58 411.24,311.93 418.91,304.21 425.67,296.86 431.71,284.44 437.19,277.74 442.18,269.14 446.77,261.13 451.03,253.60 454.99,244.36 458.69,238.51 462.17,233.01 465.45,227.66 468.56,222.50 471.50,217.55 474.30,214.40 476.97,211.39 479.52,208.09 481.97,206.25 484.31,204.59 486.56,203.71 488.73,203.13 490.81,202.65 492.83,202.19 494.77,201.74 496.66,201.29 498.48,200.85 500.25,200.42 501.96,199.99 503.62,199.99 505.24,199.99 506.81,199.99 508.34,199.99 509.83,199.99 511.29,199.99 512.70,199.99 514.09,199.99 515.44,199.99 516.76,199.99 518.05,199.99 519.31,199.99 520.54,199.99 521.75,199.99 522.94,199.99 524.10,199.99 525.23,199.99 526.35,199.99 527.44,199.99 528.51,199.99 529.57,199.99 530.60,199.99 531.62,199.99 532.61,199.99 533.60,199.99 534.56,199.99 535.51,199.99 536.44,199.99 537.36,199.99 538.27,199.99 539.16,199.99 540.03,199.99 540.89,199.99 541.75,199.99 542.58,199.99 543.41,199.99 544.22,199.99 545.03,199.99 545.82,199.99 546.60,199.99 547.37,199.99 548.13,199.99 548.88,199.99 549.62,199.99 550.35,199.99 551.07,199.99 551.79,199.99 552.49,199.99 553.19,199.99 553.87,199.99 554.55,199.99 555.22,199.99 555.89,199.99 556.54,199.99 557.19,199.99 557.83,199.99 558.47,199.99 559.10,199.99 559.72,199.99 560.33,199.99 560.94,199.99 561.54,199.99 562.13,199.99 562.72,199.99 563.31,199.99 563.88,199.99 564.45,199.99 "
           style="fill:none;stroke:#e96d50;stroke-width:0.75;stroke-linecap:round;stroke-linejoin:round;stroke-miterlimit:10"
           id="polyline161" />
        <polyline
           points="299.55,199.99 339.33,199.99 362.61,199.99 379.12,199.99 391.93,199.99 402.39,199.99 411.24,199.99 418.91,199.99 425.67,199.99 431.71,199.99 437.19,199.99 442.18,199.99 446.77,199.99 451.03,199.99 454.99,199.99 458.69,199.99 462.17,199.99 465.45,199.99 468.56,199.99 471.50,199.99 474.30,199.99 476.97,199.99 479.52,199.99 481.97,199.99 484.31,199.99 486.56,199.99 488.73,199.99 490.81,199.99 492.83,199.99 494.77,199.99 496.66,199.99 498.48,199.99 500.25,199.99 501.96,199.99 503.62,199.99 505.24,199.99 506.81,199.99 508.34,199.99 509.83,199.99 511.29,199.99 512.70,199.99 514.09,199.99 515.44,199.99 516.76,199.99 518.05,199.99 519.31,199.99 520.54,199.99 521.75,199.99 522.94,199.99 524.10,199.99 525.23,199.99 526.35,199.99 527.44,199.99 528.51,199.99 529.57,199.99 530.60,199.99 531.62,199.99 532.61,199.99 533.60,199.99 534.56,199.99 535.51,199.99 536.44,199.99 537.36,199.99 538.27,199.99 539.16,199.99 540.03,199.99 540.89,199.99 541.75,199.99 542.58,199.99 543.41,199.99 544.22,199.99 545.03,199.99 545.82,199.99 546.60,199.99 547.37,199.99 548.13,199.99 548.88,199.99 549.62,199.99 550.35,199.99 551.07,199.99 551.79,199.99 552.49,199.99 553.19,199.99 553.87,199.99 554.55,199.99 555.22,199.99 555.89,199.99 556.54,199.99 557.19,199.99 557.83,199.99 558.47,199.99 559.10,199.99 559.72,199.99 560.33,199.99 560.94,199.99 561.54,199.99 562.13,199.99 562.72,199.99 563.31,199.99 563.88,199.99 564.45,199.99 "
           style="fill:none;stroke:#e76254;stroke-width:0.75;stroke-linecap:round;stroke-linejoin:round;stroke-miterlimit:10"
           id="polyline162" />
      </g>
    </g>
  </g>
  <plotdata
     application="axidraw"
     model="1"
     plob_version="n/a"
     layer="-1"
     pause_dist="1459968"
     pause_ref="1459968"
     last_x="122.3812499999996"
     last_y="72.18124999999984"
     rand_seed="1"
     row="0" />
</svg>
