<?xml version="1.0" encoding="UTF-8" standalone="no"?>
<svg
   height="21.59cm"
   version="1.2"
   viewBox="0 0 1056.0 816.0"
   width="27.94cm"
   id="svg30"
   sodipodi:docname="opt.svg"
   inkscape:version="1.3 (0e150ed6c4, 2023-07-21)"
   xmlns:inkscape="http://www.inkscape.org/namespaces/inkscape"
   xmlns:sodipodi="http://sodipodi.sourceforge.net/DTD/sodipodi-0.dtd"
   xmlns="http://www.w3.org/2000/svg"
   xmlns:svg="http://www.w3.org/2000/svg"
   xmlns:dc="http://purl.org/dc/elements/1.1/"
   xmlns:ns="http://www.w3.org/1999/02/22-rdf-syntax-ns"
   xmlns:ns0="http://creativecommons.org/ns">
  <sodipodi:namedview
     id="namedview30"
     pagecolor="#505050"
     bordercolor="#eeeeee"
     borderopacity="1"
     inkscape:showpageshadow="0"
     inkscape:pageopacity="0"
     inkscape:pagecheckerboard="0"
     inkscape:deskcolor="#d1d1d1"
     inkscape:document-units="cm"
     showgrid="false"
     inkscape:zoom="1.0036765"
     inkscape:cx="527.56044"
     inkscape:cy="408"
     inkscape:window-width="1920"
     inkscape:window-height="1057"
     inkscape:window-x="-8"
     inkscape:window-y="-8"
     inkscape:window-maximized="1"
     inkscape:current-layer="svg30" />
  <metadata
     id="metadata1">
    <ns:RDF>
      <ns0:Work>
        <dc:format>image/svg+xml</dc:format>
        <dc:source>vpype read decent-into-madness-crop.svg linemerge linesort reloop linesimplify write opt.svg&#10;</dc:source>
        <dc:date>2023-12-14T18:18:15.386052</dc:date>
      </ns0:Work>
    </ns:RDF>
  </metadata>
  <defs
     id="defs1" />
  <g
     fill="none"
     id="layer1"
     inkscape:groupmode="layer"
     inkscape:label="Layer 1"
     stroke="#0000ff"
     stroke-width="1.6037"
     style="display:inline">
    <polyline
       points="240.6212,447.4371 325.6789,535.2744 807.0309,535.2744 588.3356,535.2744 580.8947,519.6441 572.9833,498.3477 564.516,476.7732 555.4073,455.1132 545.5929,433.9664 534.9233,413.3541 523.206,393.1054 510.2912,366.5061 495.837,347.2409 479.437,326.6073 460.5139,308.4753 438.1483,290.8779 410.7579,273.9648 375.4562,261.5632 325.6789,248.1353 240.6212,215.5063"
       id="polyline1" />
    <polyline
       points="240.6212,213.7958 325.6789,232.1415 375.4562,238.77 410.7579,245.3343 438.1483,252.1979 460.5139,263.8083 479.437,276.6375 523.206,315.2107 545.5929,347.5831 555.4073,364.1755 572.9833,403.7109 595.3489,462.2121 608.285,497.4496 614.272,509.8084 619.981,511.2838 625.4334,510.5782 630.672,510.7706 665.9737,510.2361 707.8183,508.6966 770.5104,505.7031 807.0309,504.4202"
       id="polyline2" />
    <polyline
       points="807.0309,515.8809 669.7583,520.029 619.981,520.6277 614.272,520.029 608.285,520.0932 601.9987,521.2264 595.3489,509.8512 580.8947,472.1761 572.9833,453.6165 564.516,434.6506 545.5929,394.2172 534.9233,375.8501 523.206,359.3218 510.2912,348.2673 495.837,336.892 460.5139,317.7338 438.1483,307.6628 375.4562,281.8547 325.6789,273.1309 240.6212,246.4675"
       id="polyline3" />
    <polyline
       points="240.6212,262.2474 325.6789,288.2693 375.4562,286.5374 410.7579,282.3893 438.1483,275.8892 460.5139,272.8315 479.437,272.5749 495.837,270.9499 510.2912,270.4795 523.206,270.5009 534.9233,269.1538 545.5929,268.9614 555.4073,267.8923 564.516,268.7262 580.8947,287.2858 595.3489,307.5987 601.9987,317.6482 614.272,337.4052 619.981,345.3166 625.4334,348.2887 630.672,346.3643 662.0822,340.249 715.7297,326.9922 743.12,320.9197 758.4937,318.0545 773.7391,315.6169 791.5075,313.3291 807.0309,311.7896"
       id="polyline4" />
    <polyline
       points="807.0309,297.4422 778.4217,300.4999 763.775,302.6381 747.1398,305.5674 730.1839,309.0954 715.7297,312.5166 665.9737,325.752 649.5737,329.7291 640.4863,331.3327 635.6754,332.5515 630.672,331.5252 625.4334,325.7306 619.981,316.793 608.285,295.3254 595.3489,270.1802 588.3356,259.1684 580.8947,250.2094 572.9833,243.1319 564.516,239.3259 555.4073,232.9968 545.5929,227.8651 534.9233,225.2779 523.206,220.5739 510.2912,221.8568 495.837,226.5395 479.437,234.1301 460.5139,242.02 438.1483,252.8607 410.7579,264.5995 375.4562,280.7856 325.6789,293.1872 240.6212,274.7345"
       id="polyline5" />
    <polyline
       points="240.6212,277.4928 325.6789,317.3489 375.4562,320.1072 410.7579,327.6123 438.1483,336.3361 460.5139,347.8824 479.437,355.8365 495.837,364.5818 510.2912,371.5737 534.9233,385.8569 555.4073,397.2107 564.516,404.8655 572.9833,413.0976 580.8947,418.2292 588.3356,418.8279 595.3489,421.18 601.9987,416.1552 608.285,407.581 614.272,405.5711 619.981,398.0446 625.4334,398.0232 630.672,396.89 662.0822,392.635 676.9641,390.3257 738.9505,378.8436 763.775,374.6313 784.4087,371.7447 807.0309,369.35"
       id="polyline6" />
    <polyline
       points="807.0309,383.6545 784.4087,385.9638 762.0431,389.0 741.0673,392.3784 693.3641,400.7174 669.7583,404.3095 635.6754,408.3508 630.672,409.3985 625.4334,408.5004 619.981,414.9364 614.272,418.8921 601.9987,431.1012 595.3489,432.598 588.3356,442.6261 580.8947,445.5768 572.9833,454.6001 555.4073,466.6167 545.5929,475.9179 534.9233,480.2371 523.206,489.132 510.2912,494.7982 495.837,503.8642 479.437,509.2953 460.5139,517.5487 438.1483,517.9764 375.4562,535.2744 325.6789,535.2744 240.6212,525.6525"
       id="polyline7" />
    <polyline
       points="240.6212,523.2149 325.6789,535.2744 375.4562,534.1625 410.7579,511.6473 438.1483,514.8973 460.5139,505.2754 479.437,496.744 495.837,491.8903 510.2912,480.793 523.206,471.6415 534.9233,465.8898 545.5929,453.7234 555.4073,441.4501 564.516,429.8611 572.9833,417.5023 580.8947,404.3309 588.3356,394.2386 595.3489,380.2975 601.9987,371.146 608.285,358.3382 614.272,348.0107 619.981,340.078 630.672,322.7585 635.6754,316.4936 640.4863,307.898 645.1262,304.2203 649.5737,303.2581 680.4279,293.2941 699.351,287.5424 715.7297,283.1163 730.1839,279.7165 747.1398,276.3596 768.864,272.9384 790.1177,270.4581 807.0309,269.0255"
       id="polyline8" />
    <polyline
       points="807.0309,255.0203 785.8627,256.7309 762.0431,259.5105 741.0673,262.8461 723.1706,266.5025 705.06,271.0568 690.2423,275.4615 662.0822,285.1476 649.5737,289.7233 645.1262,291.9043 640.4863,292.2464 635.6754,287.4996 630.672,284.3351 625.4334,282.8597 619.981,279.9945 608.285,270.9499 601.9987,268.2772 595.3489,269.3463 588.3356,268.1061 580.8947,269.2821 572.9833,274.4138 564.516,279.2034 555.4073,283.0735 545.5929,290.0654 534.9233,299.0459 523.206,310.4211 510.2912,321.497 495.837,337.1273 479.437,351.2394 460.5139,364.1327 438.1483,377.1972 410.7579,385.0871 375.4562,392.2073 325.6789,404.7586 240.6212,356.3497"
       id="polyline9" />
    <polyline
       points="240.6212,361.8662 325.6789,437.2592 375.4562,449.5753 410.7579,461.3568 438.1483,480.5364 460.5139,503.7145 479.437,525.2249 495.837,535.1247 510.2912,533.0721 523.206,532.174 534.9233,532.1526 545.5929,530.9766 555.4073,530.4634 572.9833,528.197 580.8947,525.9518 588.3356,519.4089 595.3489,517.5273 601.9987,511.1769 608.285,507.7985 614.272,503.0731 619.981,499.8016 625.4334,500.6997 630.672,500.272 649.5737,500.1651 673.4146,499.5237 699.351,498.2835 768.864,494.0499 807.0309,492.2965"
       id="polyline10" />
    <polyline
       points="807.0309,479.6598 767.1962,481.9263 707.8183,486.4165 673.4146,488.5333 649.5737,489.3458 625.4334,489.4741 619.981,490.2439 614.272,488.8754 608.285,495.568 601.9987,498.0269 595.3489,504.7409 588.3356,507.264 580.8947,514.1704 572.9833,517.7625 564.516,519.4303 555.4073,520.2428 545.5929,521.9962 534.9233,520.9485 523.206,525.0324 510.2912,515.7954 479.437,475.64 460.5139,455.5836 438.1483,437.024 410.7579,422.1849 375.4562,409.5268 325.6789,396.6334 240.6212,329.8574"
       id="polyline11" />
    <polyline
       points="240.6212,327.8047 325.6789,368.8795 375.4562,360.2412 410.7579,344.333 438.1483,329.3014 460.5139,313.885 479.437,296.8435 495.837,287.7776 510.2912,275.0553 534.9233,250.4018 545.5929,237.6367 564.516,220.8518 572.9833,215.7843 588.3356,205.6706 595.3489,205.2857 601.9987,208.4717 608.285,214.7366 614.272,218.9061 619.981,225.2779 630.672,240.3736 635.6754,246.0826 640.4863,250.2735 645.1262,249.6962 649.5737,247.8359 658.041,243.2174 665.9737,239.3259 680.4279,233.3603 693.3641,229.0839 707.8183,225.3634 730.1839,221.2367 752.9557,218.3288 778.4217,216.0837 807.0309,214.4586"
       id="polyline12" />
    <polyline
       points="807.0309,201.6722 773.7391,203.2758 743.12,205.7348 718.2741,208.8352 699.351,212.4059 683.7849,216.6824 673.4146,220.5311 665.9737,223.8026 658.041,227.8865 653.8929,230.3882 649.5737,233.2534 645.1262,237.0166 640.4863,239.7749 635.6754,246.6172 630.672,252.711 625.4334,257.0516 619.981,269.8167 608.285,293.2941 595.3489,313.436 588.3356,326.9922 580.8947,340.0138 564.516,366.6772 555.4073,379.3567 545.5929,396.9541 534.9233,411.7933 523.206,421.18 510.2912,436.8316 495.837,449.2118 479.437,461.4851 460.5139,470.2303 438.1483,482.4822 410.7579,495.1404 375.4562,507.0288 325.6789,535.2744 240.6212,489.3031"
       id="polyline13" />
    <polyline
       points="240.6212,508.3331 325.6789,535.2744 375.4562,482.4822 410.7579,471.278 438.1483,456.6741 460.5139,443.7166 479.437,426.7607 495.837,410.3179 510.2912,394.3241 523.206,382.4999 534.9233,362.2725 555.4073,329.0448 564.516,313.6712 572.9833,300.5426 588.3356,270.6933 595.3489,255.8756 608.285,234.4508 619.981,217.9653 625.4334,211.5293 630.672,209.2628 640.4863,205.8631 645.1262,202.335 653.8929,197.3958 662.0822,193.4187 669.7583,190.3825 676.9641,188.0304 687.0564,185.6357 705.06,183.0484 730.1839,180.8675 760.2684,179.2852 807.0309,177.9381"
       id="polyline14" />
    <polyline
       points="807.0309,167.0333 758.4937,167.9955 730.1839,168.9791 705.06,170.3261 687.0564,171.887 676.9641,173.341 669.7583,175.1157 662.0822,177.3181 645.1262,183.0698 635.6754,185.8495 630.672,186.5551 625.4334,185.3791 619.981,181.3165 614.272,178.3872 608.285,176.6338 601.9987,176.0779 595.3489,176.3131 588.3356,177.2111 580.8947,178.6865 572.9833,181.2737 564.516,186.2557 555.4073,193.5042 545.5929,200.4748 534.9233,207.4881 523.206,219.0558 510.2912,233.1251 495.837,247.5794 479.437,262.1405 460.5139,277.7708 438.1483,295.4323 410.7579,309.7155 375.4562,326.3507 325.6789,348.5666 240.6212,316.7288"
       id="polyline15" />
    <polyline
       points="240.6212,305.4391 325.6789,346.236 375.4562,343.4563 410.7579,338.7095 438.1483,338.1108 460.5139,334.4117 479.437,329.2801 495.837,318.5249 510.2912,316.9426 523.206,318.3538 534.9233,318.4608 564.516,327.0349 572.9833,328.66 580.8947,335.267 588.3356,342.1306 595.3489,348.0748 601.9987,352.2871 608.285,360.1984 614.272,368.4733 619.981,373.8829 625.4334,373.1987 669.7583,365.3088 730.1839,352.3726 754.816,347.5831 781.458,343.4349 807.0309,340.5911"
       id="polyline16" />
    <polyline
       points="807.0309,354.9812 785.8627,357.2477 760.2684,360.9682 736.8337,365.2018 673.4146,377.8386 625.4334,385.5789 619.981,386.199 614.272,389.4918 608.285,395.885 601.9987,394.6235 595.3489,394.8373 588.3356,391.0099 572.9833,375.8287 564.516,369.3072 534.9233,358.6376 523.206,362.5505 510.2912,367.4897 495.837,369.7776 479.437,370.1625 460.5139,366.891 438.1483,366.1426 410.7579,367.1048 375.4562,360.8827 325.6789,350.5979 240.6212,301.3765"
       id="polyline17" />
    <polyline
       points="240.6212,281.2133 325.6789,332.7439 375.4562,346.514 438.1483,376.5557 460.5139,389.449 479.437,397.0183 495.837,409.5481 510.2912,424.43 523.206,441.1721 534.9233,460.5015 545.5929,475.362 555.4073,484.4707 564.516,487.9774 572.9833,481.4986 580.8947,476.8801 588.3356,468.9474 595.3489,464.6282 601.9987,455.9257 608.285,454.6001 614.272,450.2381 619.981,442.8613 625.4334,439.7609 630.672,433.8595 635.6754,431.8282 640.4863,431.9565 649.5737,431.2937 676.9641,428.685 705.06,425.0287 765.507,416.2835 790.1177,413.4611 807.0309,411.9643"
       id="polyline18" />
    <polyline
       points="807.0309,425.9268 772.1354,429.1555 705.06,437.8579 673.4146,441.4287 658.041,442.733 635.6754,444.0587 630.672,442.6689 625.4334,433.5174 619.981,419.2342 595.3489,349.0157 588.3356,331.6107 580.8947,316.2584 572.9833,301.6545 564.516,286.1311 555.4073,270.9713 534.9233,248.4774 523.206,240.2026 510.2912,227.5444 495.837,219.6758 479.437,215.8912 460.5139,214.8435 438.1483,217.8797 375.4562,228.6349 325.6789,238.0216 240.6212,224.6578"
       id="polyline19" />
    <polyline
       points="240.6212,194.5733 325.6789,210.0112 375.4562,212.4273 410.7579,216.3616 438.1483,223.097 460.5139,230.8159 479.437,239.4328 495.837,250.4446 510.2912,263.0172 523.206,275.7609 545.5929,300.0508 564.516,329.9857 580.8947,363.812 588.3356,381.0673 595.3489,399.2206 601.9987,418.8493 608.285,434.9072 614.272,448.1641 619.981,455.5836 630.672,454.9849 640.4863,455.4126 649.5737,455.1132 676.9641,453.2957 702.2376,450.7727 768.864,442.9896 807.0309,439.7182"
       id="polyline20" />
    <polyline
       points="807.0309,453.3171 772.1354,455.9257 705.06,462.8107 673.4146,465.5049 649.5737,466.7664 625.4334,467.0444 619.981,466.8519 614.272,467.6858 608.285,467.4293 601.9987,473.3521 595.3489,477.2222 588.3356,483.7437 580.8947,486.8869 572.9833,494.9265 564.516,498.1766 555.4073,500.101 534.9233,503.8001 523.206,493.9216 510.2912,477.8423 495.837,460.6084 479.437,443.9732 460.5139,429.1341 438.1483,419.1914 410.7579,416.5401 375.4562,415.3854 325.6789,410.4676 240.6212,348.139"
       id="polyline21" />
    <polyline
       points="240.6212,376.684 325.6789,441.2363 375.4562,435.3776 410.7579,430.6094 438.1483,424.4942 460.5139,420.0895 479.437,421.9497 495.837,427.5304 523.206,441.6853 545.5929,449.6822 555.4073,450.5375 564.516,443.2462 580.8947,427.5732 588.3356,413.3755 595.3489,403.6895 601.9987,389.9622 608.285,381.1314 614.272,371.0177 619.981,362.6146 625.4334,360.3054 665.9737,352.7789 723.1706,339.6289 743.12,335.3953 758.4937,332.5301 775.3213,329.8574 791.5075,327.7619 807.0309,326.1797"
       id="polyline22" />
    <polyline
       points="807.0309,283.1804 785.8627,285.1903 770.5104,287.1361 752.9557,289.9158 734.6527,293.4652 707.8183,299.9225 645.1262,317.7551 640.4863,316.1515 635.6754,310.1859 630.672,299.388 625.4334,284.1854 619.981,269.9663 614.272,257.8427 608.285,247.7077 601.9987,238.1499 588.3356,221.4719 580.8947,213.3468 572.9833,207.0391 564.516,201.9288 555.4073,195.172 545.5929,190.5535 534.9233,188.2015 375.4562,188.2015 325.6789,192.4779 240.6212,191.8578"
       id="polyline23" />
    <polyline
       points="240.6212,158.9081 807.0309,158.9081 673.4146,158.9081 640.4863,166.8623 635.6754,168.7439 630.672,172.2933 625.4334,176.2276 619.981,183.2836 608.285,196.455 588.3356,229.5116 572.9833,253.7802 564.516,273.5371 534.9233,325.1533 523.206,339.4793 510.2912,366.0357 495.837,381.7515 479.437,398.2584 460.5139,416.7539 438.1483,437.6013 410.7579,456.4603 375.4562,473.3948 325.6789,484.5776 240.6212,417.0105"
       id="polyline24" />
    <polyline
       points="240.6212,427.5732 325.6789,516.1589 375.4562,527.8762 410.7579,534.077 438.1483,526.8713 460.5139,525.1607 479.437,520.4353 495.837,512.2674 510.2912,508.44 523.206,500.4645 534.9233,493.8788 545.5929,489.132 555.4073,483.3161 564.516,474.8916 572.9833,466.4243 580.8947,462.3831 588.3356,456.1609 595.3489,449.2973 601.9987,443.8663 608.285,440.4665 614.272,432.9828 619.981,429.6045 625.4334,424.0238 630.672,420.2605 635.6754,420.5813 673.4146,416.5401 696.3789,413.3328 763.775,402.7059 784.4087,400.0759 807.0309,397.8522"
       id="polyline25" />
    <polyline
       points="807.0309,466.6381 768.864,469.1826 705.06,474.8702 676.9641,476.9656 653.8929,478.0775 619.981,478.5051 614.272,479.2321 608.285,480.5578 601.9987,487.4001 595.3489,489.7521 588.3356,497.1716 580.8947,500.5072 572.9833,507.0074 564.516,509.1028 555.4073,510.7278 534.9233,513.0799 523.206,513.144 510.2912,519.9007 495.837,522.9797 479.437,531.5967 460.5139,534.9964 438.1483,535.2744 375.4562,535.2744 325.6789,532.1954 240.6212,447.9502"
       id="polyline26" />
    <polyline
       points="240.6212,461.9768 325.6789,535.2744 588.3356,535.2744 595.3489,531.1691 601.9987,529.8648 608.285,530.3993 614.272,529.8648 625.4334,530.3352 662.0822,529.993 807.0309,526.743"
       id="polyline27" />
    <polyline
       points="807.0309,241.2289 782.9547,243.0036 760.2684,245.4625 736.8337,249.012 718.2741,252.7538 702.2376,256.8378 683.7849,262.6323 665.9737,269.2393 645.1262,278.0487 640.4863,282.8169 635.6754,289.9371 630.672,301.0558 625.4334,308.1119 619.981,318.418 608.285,336.7424 595.3489,360.4764 588.3356,371.3385 572.9833,397.7025 564.516,410.1682 555.4073,421.2013 545.5929,433.7526 534.9233,448.1854 510.2912,468.6908 495.837,477.6071 479.437,485.9033 460.5139,495.9956 438.1483,504.5271 410.7579,505.6175 375.4562,521.7182 325.6789,535.2744 240.6212,535.2744"
       id="polyline28" />
    <polyline
       points="240.6212,514.6621 325.6789,535.2744 375.4562,494.7555 438.1483,472.1333 460.5139,458.0639 479.437,443.8021 495.837,429.69 523.206,403.2191 534.9233,390.4326 545.5929,373.5622 555.4073,358.9369 564.516,341.7458 572.9833,328.8738 588.3356,300.7564 595.3489,288.6115 601.9987,277.8563 608.285,263.7442 614.272,252.54 619.981,242.7898 625.4334,237.1663 630.672,229.2122 635.6754,225.0855 645.1262,221.6002 649.5737,217.6018 653.8929,214.48 658.041,211.9142 665.9737,207.8943 673.4146,204.7939 680.4279,202.3136 693.3641,198.9139 702.2376,197.2247 713.1424,195.5783 738.9505,192.8628 768.864,190.8956 807.0309,189.4417"
       id="polyline29" />
    <polyline
       points="807.0309,227.6727 779.9612,229.4688 756.6548,231.7994 732.4504,235.2419 713.1424,239.0479 696.3789,243.4099 680.4279,248.6912 665.9737,254.4644 640.4863,266.0107 630.672,273.4088 625.4334,287.1789 619.981,295.5392 614.272,306.6151 601.9987,325.5168 595.3489,337.9184 580.8947,362.8926 572.9833,375.4011 555.4073,405.7421 545.5929,416.5828 534.9233,425.3281 523.206,442.8186 510.2912,451.4997 495.837,462.4045 479.437,475.6186 460.5139,484.4707 438.1483,492.6387 410.7579,503.2655 375.4562,496.9151 325.6789,502.9448 240.6212,428.8133"
       id="polyline30" />
  </g>
  <plotdata
     application="axidraw"
     model="1"
     plob_version="n/a"
     layer="-2"
     pause_dist="-25400"
     pause_ref="-25400"
     last_x="6.423795523291531e-13"
     last_y="1.8876150642554988e-13"
     rand_seed="1"
     row="0" />
</svg>
